<svg width="32" height="32" viewBox="0 0 32 32" fill="none" xmlns="http://www.w3.org/2000/svg">
<path d="M31.2 24.0953H7.2C5.87451 24.0953 4.8 23.0326 4.8 21.7218C4.8 20.4109 5.87451 19.3483 7.2 19.3483H24.7422C26.768 19.3548 28.5381 17.9963 29.0344 16.0539L31.975 4.50912C32.0839 4.08668 31.8258 3.65691 31.3985 3.54922C31.3336 3.5329 31.2669 3.52469 31.2 3.52479H7.02539L6.98281 3.35636C6.53916 1.59408 4.93789 0.35797 3.10156 0.360095H0.8C0.358203 0.360095 0 0.714346 0 1.15127C0 1.58819 0.358203 1.94244 0.8 1.94244H3.10156C4.20312 1.9409 5.16377 2.68243 5.42969 3.73958L8.975 17.7659H7.2C4.99082 17.7659 3.2 19.537 3.2 21.7218C3.2 23.9066 4.99082 25.6777 7.2 25.6777H8.81992C8.29102 26.3586 8.00293 27.1925 8 28.0512C8 30.236 9.79082 32.007 12 32.007C14.2092 32.007 16 30.236 16 28.0512C15.9971 27.1925 15.709 26.3586 15.1801 25.6777H21.6199C21.091 26.3586 20.8029 27.1925 20.8 28.0512C20.8 30.236 22.5908 32.007 24.8 32.007C27.0092 32.007 28.8 30.236 28.8 28.0512C28.7971 27.1925 28.509 26.3586 27.9801 25.6777H31.2C31.6418 25.6777 32 25.3234 32 24.8865C32 24.4496 31.6418 24.0953 31.2 24.0953ZM7.42656 5.10714H30.1734L27.4828 15.6674C27.1649 16.9064 26.0347 17.7719 24.7422 17.7659H10.65L7.42656 5.10714ZM12 30.4247C10.6745 30.4247 9.6 29.362 9.6 28.0512C9.6 26.7403 10.6745 25.6777 12 25.6777C13.3255 25.6777 14.4 26.7403 14.4 28.0512C14.3985 29.3615 13.3249 30.4232 12 30.4247ZM24.8 30.4247C23.4745 30.4247 22.4 29.362 22.4 28.0512C22.4 26.7403 23.4745 25.6777 24.8 25.6777C26.1255 25.6777 27.2 26.7403 27.2 28.0512C27.1985 29.3615 26.1249 30.4232 24.8 30.4247Z" fill="#292929"/>
</svg>
