<svg width="34" height="34" viewBox="0 0 34 34" fill="none" xmlns="http://www.w3.org/2000/svg">
<path d="M17 33.007C25.8366 33.007 33 25.9226 33 17.1836C33 8.4445 25.8366 1.36009 17 1.36009C8.16344 1.36009 1 8.4445 1 17.1836C1 25.9226 8.16344 33.007 17 33.007Z" stroke="#292929" stroke-linecap="round" stroke-linejoin="round"/>
<path d="M16.9998 20.6235C21.226 20.6235 24.652 17.2353 24.652 13.0557C24.652 8.87616 21.226 5.48796 16.9998 5.48796C12.7737 5.48796 9.34766 8.87616 9.34766 13.0557C9.34766 17.2353 12.7737 20.6235 16.9998 20.6235Z" stroke="#292929" stroke-linecap="round" stroke-linejoin="round"/>
<path d="M29.5218 27.0216C29.2285 26.7839 28.9115 26.5764 28.5757 26.4025C25.0068 24.519 21.0438 23.4827 17 23.3754C12.961 23.4848 9.00295 24.5211 5.43827 26.4025C5.10241 26.5764 4.7854 26.7839 4.49219 27.0216" stroke="#292929" stroke-linecap="round" stroke-linejoin="round"/>
</svg>
